<!DOCTYPE svg PUBLIC "-//W3C//DTD SVG 1.1//EN" "http://www.w3.org/Graphics/SVG/1.1/DTD/svg11.dtd">
<!-- Uploaded to: SVG Repo, www.svgrepo.com, Transformed by: SVG Repo Mixer Tools -->
<svg width="800px" height="800px" viewBox="-2.5 -2.5 30.00 30.00" fill="none" xmlns="http://www.w3.org/2000/svg" transform="matrix(1, 0, 0, 1, 0, 0)rotate(0)" stroke="#000000">
<g id="SVGRepo_bgCarrier" stroke-width="0">
<path transform="translate(-2.5, -2.5), scale(0.9375)" d="M16,26.76311812301477C17.674695531247952,26.731500345914455,19.284557082284476,26.532702922729747,20.93517855818812,26.248003871982647C23.036930009359622,25.885493961751845,26.13267392921048,26.751753171857626,27.096532263380247,24.849189188920775C28.17535735530792,22.71969184369306,24.66051451425559,20.422348136864372,25.07730844838357,18.07183641837013C25.46311139697878,15.89609853581204,29.360383590050592,15.191051279280794,29.199904829309318,12.987207860139122C29.051808692377076,10.953414133973567,25.816263401262496,10.77361959833068,24.436531398175752,9.272090715483976C23.17463036915995,7.898794424521534,23.280378941029596,5.123627031363179,21.49100864176158,4.597803066618475C19.57579025150471,4.034997409383188,17.981875936953053,7.031637153245453,16,6.7929334441820775C13.606849890851072,6.504694510176188,12.238694386611458,3.3414781429719587,9.83278595155696,3.193648071166521C7.492826005362787,3.0498701776159307,4.096794790540119,3.7595950119636017,3.490888067348129,6.02431611515879C2.7372168081057056,8.841342466485754,6.965243197272335,11.020277792245846,6.958661809367211,13.936373558233619C6.954059902756725,15.975396417204623,3.5412827180176474,16.82425326391131,3.4619150681106348,18.86173606705321C3.3883546525484314,20.750138733322895,5.255014893959666,22.16575729275844,6.585828285261723,23.507551420873202C7.8399578579694165,24.772029000940112,9.291118101208717,25.854007758834733,10.974256817571387,26.436063251990557C12.580999182758966,26.991699701114992,14.300199126162774,26.795209881869503,16,26.76311812301477" fill="#7ed0ec" strokewidth="0"/>
</g>
<g id="SVGRepo_tracerCarrier" stroke-linecap="round" stroke-linejoin="round"/>
<g id="SVGRepo_iconCarrier"> <path d="M2 12.32H22" stroke="#000000" stroke-width="1.5" stroke-linecap="round" stroke-linejoin="round"/> <path d="M2 18.32H22" stroke="#000000" stroke-width="1.5" stroke-linecap="round" stroke-linejoin="round"/> <path d="M2 6.32001H22" stroke="#000000" stroke-width="1.5" stroke-linecap="round" stroke-linejoin="round"/> </g>
</svg>